<svg xmlns="http://www.w3.org/2000/svg" xmlns:xlink="http://www.w3.org/1999/xlink" xmlns:inkscape="http://www.inkscape.org/namespaces/inkscape" version="1.1" viewBox="-25 198 1550 1032" preserveAspectRatio="xMidYMid meet" role="img" aria-label="Zibello Arena">
<title>Zibello Arena</title>
<defs>
<clipPath id="clip_1">
<path transform="matrix(.24,0,0,.24,0,0)" d="M0 0H6250V6250H0Z" clip-rule="evenodd"/>
</clipPath>
<clipPath id="clip_2">
<path transform="matrix(.24,0,0,.24,0,0)" d="M0 0H6250V6250H0Z" clip-rule="evenodd"/>
</clipPath>
<clipPath id="clip_3">
<path transform="matrix(.24,0,0,.24,0,0)" d="M0 0H6250V6250H0Z" clip-rule="evenodd"/>
</clipPath>
<clipPath id="clip_4">
<path transform="matrix(.24,0,0,.24,0,288)" d="M0 0H6241V3850H0Z" clip-rule="evenodd"/>
</clipPath>
<path id="font_5_61" d="M.43800355 .6269989C.43800355 .6223297 .43700157 .6179962 .43499757 .6139984L.18099976 .125C.17966716 .12299601 .17966716 .12033081 .18099976 .117004398 .18300374 .114339198 .18533834 .11300659 .18800354 .11300659H.40899659C.41700236 .11300659 .42400108 .1103363 .42999269 .10499573 .43533326 .098993938 .43800355 .091659549 .43800355 .08299255V.029006958C.43800355 .02100118 .43533326 .014333089 .42999269 .009002686 .42400108 .0030008953 .41700236 0 .40899659 0H.07899475C.070999149 0 .06433614 .0030008953 .059005739 .009002686 .05300395 .014333089 .05000305 .02100118 .05000305 .029006958V.10600281C.05000305 .110672 .050999959 .11500549 .052993776 .119003299L.30700685 .6080017C.30900065 .60999557 .30900065 .6126607 .30700685 .6159973 .30633546 .61866256 .30400086 .6199951 .30000306 .6199951H.07899475C.070999149 .6199951 .06433614 .62299606 .059005739 .6289978 .05300395 .6343282 .05000305 .6413269 .05000305 .6499939V.70399478C.05000305 .71200057 .05300395 .71900436 .059005739 .7250061 .06433614 .7303365 .070999149 .7330017 .07899475 .7330017H.40899659C.41700236 .7330017 .42400108 .7303365 .42999269 .7250061 .43533326 .71900436 .43800355 .71200057 .43800355 .70399478V.6269989Z"/>
<path id="font_5_44" d="M.13400269 .7330017C.14199829 .7330017 .148997 .7303365 .15499878 .7250061 .16032918 .71900436 .16299439 .71200057 .16299439 .70399478V.029006958C.16299439 .02100118 .16032918 .014333089 .15499878 .009002686 .148997 .0030008953 .14199829 0 .13400269 0H.07899475C.070999149 0 .06433614 .0030008953 .059005739 .009002686 .05300395 .014333089 .05000305 .02100118 .05000305 .029006958V.70399478C.05000305 .71200057 .05300395 .71900436 .059005739 .7250061 .06433614 .7303365 .070999149 .7330017 .07899475 .7330017H.13400269Z"/>
<path id="font_5_37" d="M.43400575 .3789978C.45599876 .3610026 .47332765 .33900453 .48599244 .31300355 .497996 .28700257 .5053304 .2599996 .5079956 .23199463 .5106608 .20399983 .5083313 .17633565 .5010071 .14900208 .4936727 .12099711 .4813385 .09599813 .46400453 .07400513 .44667054 .052001954 .42433677 .034332277 .39700318 .020996094 .3696696 .0069986979 .33766685 0 .30099488 0H.07899475C.070999149 0 .06433614 .0030008953 .059005739 .009002686 .05300395 .014333089 .05000305 .02100118 .05000305 .029006958V.70399478C.05000305 .71200057 .05300395 .71900436 .059005739 .7250061 .06433614 .7303365 .070999149 .7330017 .07899475 .7330017H.2440033C.29066468 .7330017 .32966105 .7223358 .36099244 .701004 .3916626 .67967227 .4146627 .65300497 .42999269 .6210022 .44533286 .58899948 .45300294 .5543315 .45300294 .5169983 .45233155 .47966514 .44366456 .44533286 .42700196 .41400147 .42366538 .40799967 .42266337 .40166728 .42399598 .39500428 .42532859 .3883311 .42866517 .3829956 .43400575 .3789978M.19200135 .6199951C.18399556 .6199951 .17732747 .6173299 .17199707 .6119995 .16599529 .60599777 .16299439 .598999 .16299439 .5910034V.45199586C.16299439 .44400025 .16599529 .43733726 .17199707 .43200685 .17732747 .42600505 .18399556 .42300416 .19200135 .42300416H.2460022C.2666626 .42300416 .28399659 .42800395 .29800416 .43800355 .31200157 .44733177 .32266746 .45933024 .33000184 .47399903 .3373362 .48866783 .34100343 .5046692 .34100343 .5220032 .34100343 .5386658 .33766685 .5543315 .33099366 .56900027 .32366944 .583669 .31300355 .59600326 .29899598 .6060028 .28499858 .615331 .26733399 .6199951 .2460022 .6199951H.19200135M.30299378 .11300659C.32366435 .11300659 .34099833 .118006389 .35499574 .12800598 .3690033 .13733419 .3796692 .14933269 .3869934 .16400147 .3936666 .17867024 .39733378 .19467163 .397995 .21200562 .397995 .22866822 .39466349 .24433391 .3880005 .2590027 .3806661 .27367149 .3700002 .28600566 .3560028 .29600526 .3420054 .30533348 .32433573 .30999757 .30299378 .30999757H.19200135C.18399556 .30999757 .17732747 .30733238 .17199707 .30200196 .16599529 .29600016 .16299439 .28900147 .16299439 .28100587V.14199829C.16299439 .13400269 .16599529 .1273346 .17199707 .12199402 .17732747 .1160024 .18399556 .11300659 .19200135 .11300659H.30299378Z"/>
<path id="font_5_40" d="M.41000367 .6490021C.41000367 .6409963 .40733338 .6343282 .4019928 .6289978 .3960012 .62299606 .38900248 .6199951 .3809967 .6199951H.19200135C.18399556 .6199951 .17732747 .6173299 .17199707 .6119995 .16599529 .60599777 .16299439 .598999 .16299439 .5910034V.53100588C.16299439 .52300009 .16599529 .516332 .17199707 .5110016 .17732747 .5049998 .18399556 .5019989 .19200135 .5019989H.31700135C.32566834 .5019989 .33300273 .4993337 .33900453 .4940033 .34433494 .4880015 .34700013 .4810028 .34700013 .4730072V.41900636C.34700013 .41100059 .34433494 .4039968 .33900453 .397995 .33300273 .3920034 .32566834 .38900758 .31700135 .38900758H.19200135C.18399556 .38900758 .17732747 .38633729 .17199707 .3809967 .16599529 .3749949 .16299439 .36799623 .16299439 .3600006V.14199829C.16299439 .13400269 .16599529 .1273346 .17199707 .12199402 .17732747 .1160024 .18399556 .11300659 .19200135 .11300659H.3809967C.38900248 .11300659 .3960012 .1103363 .4019928 .10499573 .40733338 .098993938 .41000367 .09199524 .41000367 .083999637V.029006958C.41000367 .02100118 .40733338 .014333089 .4019928 .009002686 .3960012 .0030008953 .38900248 0 .3809967 0H.07899475C.070999149 0 .06433614 .0030008953 .059005739 .009002686 .05300395 .014333089 .05000305 .02100118 .05000305 .029006958V.70399478C.05000305 .71200057 .05300395 .71900436 .059005739 .7250061 .06433614 .7303365 .070999149 .7330017 .07899475 .7330017H.3809967C.38900248 .7330017 .3960012 .7303365 .4019928 .7250061 .40733338 .71900436 .41000367 .71200057 .41000367 .70399478V.6490021Z"/>
<path id="font_5_47" d="M.35499574 .11300659C.3630015 .11300659 .37000529 .1103363 .37600709 .10499573 .3813375 .098993938 .3840027 .09199524 .3840027 .083999637V.029006958C.3840027 .02100118 .3813375 .014333089 .37600709 .009002686 .37000529 .0030008953 .3630015 0 .35499574 0H.07899475C.070999149 0 .06433614 .0030008953 .059005739 .009002686 .05300395 .014333089 .05000305 .02100118 .05000305 .029006958V.70399478C.05000305 .71200057 .05300395 .71900436 .059005739 .7250061 .06433614 .7303365 .070999149 .7330017 .07899475 .7330017H.13400269C.14199829 .7330017 .148997 .7303365 .15499878 .7250061 .16032918 .71900436 .16299439 .71200057 .16299439 .70399478V.14199829C.16299439 .13400269 .16599529 .1273346 .17199707 .12199402 .17732747 .1160024 .18399556 .11300659 .19200135 .11300659H.35499574Z"/>
<path id="font_5_50" d="M.32800294 0C.23533122 0 .16366577 .03866577 .11300659 .115997318 .071004237 .18133545 .05000305 .2646688 .05000305 .3659973 .05000305 .41599528 .055333456 .46233116 .06599426 .5050049 .076665248 .5469971 .09233602 .58399459 .11300659 .6159973 .16366577 .69400027 .23533122 .7330017 .32800294 .7330017 .42066447 .7330017 .49232994 .69400027 .54299929 .6159973 .56366989 .58399459 .5793355 .5469971 .58999636 .5050049 .6006673 .46233116 .6060028 .41599528 .6060028 .3659973 .6060028 .2646688 .58500167 .18133545 .54299929 .115997318 .49232994 .03866577 .42066447 0 .32800294 0M.32800294 .6199951C.30266319 .6199951 .2809957 .615331 .2630005 .6060028 .24499512 .59600326 .22999573 .5833333 .21800232 .56799319 .20533753 .55200198 .19533794 .53467306 .18800354 .51600649 .18066915 .4966685 .17533367 .47766624 .17199707 .45899964 .16799927 .43966166 .16566468 .42199708 .16499329 .40600587 .16366069 .3893331 .16299439 .37599693 .16299439 .3659973 .16299439 .3559977 .16366069 .34299723 .16499329 .32699586 .16566468 .31033326 .16799927 .29266868 .17199707 .27400209 .17533367 .25533549 .18066915 .2366689 .18800354 .21800232 .19533794 .19866435 .20533753 .18133037 .21800232 .16600037 .22999573 .14999898 .24499512 .13733419 .2630005 .12800598 .2809957 .118006389 .30266319 .11300659 .32800294 .11300659 .35333253 .11300659 .375 .118006389 .39300538 .12800598 .41100059 .13733419 .42633058 .14999898 .43899537 .16600037 .45099894 .18133037 .46066795 .19866435 .46800233 .21800232 .4753367 .2366689 .4810028 .25533549 .4850006 .27400209 .4883372 .29266868 .49067179 .31033326 .4920044 .32699586 .49266563 .34299723 .49299623 .3559977 .49299623 .3659973 .49299623 .37599693 .49266563 .3893331 .4920044 .40600587 .49067179 .42199708 .4883372 .43966166 .4850006 .45899964 .4810028 .47766624 .4753367 .4966685 .46800233 .51600649 .46066795 .53467306 .45099894 .55200198 .43899537 .56799319 .42633058 .5833333 .41100059 .59600326 .39300538 .6060028 .375 .615331 .35333253 .6199951 .32800294 .6199951Z"/>
<path id="font_5_36" d="M.45700074 0C.44300334 0 .43367005 .007334391 .42900086 .022003174 .42699687 .029337565 .42433167 .04000346 .42100526 .054000856 .41699729 .067337039 .41199748 .08566793 .40600587 .10899353 .40133668 .123662319 .3916677 .1309967 .3769989 .1309967H.21699524C.20233663 .1309967 .19267273 .123662319 .18800354 .10899353 .18333435 .09099833 .17933147 .07466634 .17599488 .05999756 .17199707 .045328779 .16832988 .032663984 .16499329 .022003174 .16033428 .007334391 .15100098 0 .13699341 0H.08000183C.07066345 0 .06299845 .0039978029 .057006837 .011993408 .051005048 .019327799 .04933675 .027664185 .052001954 .037002565 .05866496 .06167094 .066996257 .09300232 .07699585 .1309967 .086995448 .16832988 .09799703 .20899964 .11000061 .25300599 .12200419 .29633079 .13433838 .34132896 .14700318 .3880005 .15899658 .43400065 .17066448 .47800193 .18200684 .5200043 .19266765 .56133529 .20266724 .598999 .21200562 .6329956 .2206726 .666331 .22767131 .69233199 .23300171 .71099856 .2343343 .71766158 .23766582 .722997 .24299622 .727005 .24833679 .7310028 .2543386 .7330017 .2610016 .7330017H.33299256C.33966575 .7330017 .3456675 .7310028 .35099793 .727005 .35632835 .722997 .35965983 .71766158 .36099244 .71099856 .38432823 .62299606 .4046631 .5476634 .42199708 .4850006 .43866984 .42233787 .45267234 .3696696 .46400453 .32699586 .4753367 .28433229 .48467 .25 .4920044 .22399903 .4986674 .19799805 .5043335 .17733257 .5090027 .16200257 .5130005 .14600118 .516332 .13400269 .5189972 .12600708 .52100118 .11734009 .52300009 .10933939 .5249939 .102005008 .52699789 .094670619 .52933248 .08633423 .5319977 .07699585 .53400167 .06766764 .53733828 .054336549 .54200747 .037002565 .54467269 .027664185 .54300436 .019327799 .53700259 .011993408 .5310008 .0039978029 .52333578 0 .51400759 0H.45700074M.23399353 .28100587C.23132833 .27166749 .23299663 .2633311 .23899842 .2559967 .2450002 .2480011 .2526652 .2440033 .2619934 .2440033H.33200074C.34132896 .2440033 .34899394 .2480011 .35499574 .2559967 .36099754 .2633311 .3626658 .27166749 .3600006 .28100587 .3546702 .29967246 .34933473 .31967164 .34399415 .34100343 .33800254 .3623352 .33167015 .3849996 .32499696 .40899659 .32300315 .41633097 .31933595 .42199708 .31399537 .42599488 .30866496 .42933146 .30299888 .43099977 .29699708 .43099977 .29099528 .43099977 .2853292 .42933146 .27999879 .42599488 .27466838 .42199708 .2710012 .41633097 .2689972 .40899659 .2629954 .3876648 .25732932 .366333 .2519989 .34500123 .24599712 .32366944 .23999532 .30233766 .23399353 .28100587Z"/>
<path id="font_5_53" d="M.2440033 .7330017C.28133647 .7330017 .31366984 .72466537 .34100343 .70799258 .368337 .69066879 .39067079 .66834 .40800477 .64100649 .42533876 .6136729 .43767295 .58300277 .44500733 .548996 .45233155 .5149994 .45466105 .4806671 .45199586 .44599916 .44866944 .41133119 .44066874 .3783315 .42799378 .34700013 .41466777 .31566874 .39666749 .28933717 .37399293 .26800538 .36399333 .25933839 .36132813 .2490031 .3659973 .23699951L.43800355 .039001466C.44132997 .029663086 .44032798 .020996094 .43499757 .013000488 .42899577 .004333496 .42066447 0 .41000367 0H.35299684C.33899943 0 .32966615 .0063323976 .32499696 .018997193L.2599945 .19900513C.25533549 .21166992 .2460022 .21800232 .23199463 .21800232H.19200135C.18399556 .21800232 .17732747 .21533711 .17199707 .21000672 .16599529 .20400493 .16299439 .19700115 .16299439 .18899536V.029006958C.16299439 .02100118 .16032918 .014333089 .15499878 .009002686 .148997 .0030008953 .14199829 0 .13400269 0H.07899475C.070999149 0 .06433614 .0030008953 .059005739 .009002686 .05300395 .014333089 .05000305 .02100118 .05000305 .029006958V.70399478C.05000305 .71200057 .05300395 .71900436 .059005739 .7250061 .06433614 .7303365 .070999149 .7330017 .07899475 .7330017H.2440033M.16299439 .3600006C.16299439 .352005 .16599529 .3453369 .17199707 .33999635 .17732747 .33399455 .18399556 .33099366 .19200135 .33099366H.2460022C.2666626 .33099366 .28399659 .33832804 .29800416 .35299684 .31200157 .36699424 .32266746 .3846639 .33000184 .40600587 .3373362 .42733766 .34100343 .45066834 .34100343 .47599793 .34100343 .5006663 .33766685 .5236664 .33099366 .54499819 .32366944 .56632998 .31300355 .58433029 .29899598 .598999 .28499858 .6129964 .26733399 .6199951 .2460022 .6199951H.19200135C.18399556 .6199951 .17732747 .6173299 .17199707 .6119995 .16599529 .60599777 .16299439 .598999 .16299439 .5910034V.3600006Z"/>
<path id="font_5_49" d="M.4869995 .7330017C.49499513 .7330017 .50199386 .7303365 .5079956 .7250061 .5133362 .71900436 .51600649 .71200057 .51600649 .70399478V.029006958C.51600649 .02100118 .5133362 .014333089 .5079956 .009002686 .50199386 .0030008953 .49499513 0 .4869995 0H.41000367C.3980001 0 .3893331 .005666097 .3840027 .016998291L.18400574 .44500733C.18200176 .45033775 .17799886 .45233665 .17199707 .45100404 .16599529 .44967143 .16299439 .44600425 .16299439 .44000245V.029006958C.16299439 .02100118 .16032918 .014333089 .15499878 .009002686 .148997 .0030008953 .1416626 0 .1329956 0H.07899475C.070999149 0 .06433614 .0030008953 .059005739 .009002686 .05300395 .014333089 .05000305 .02100118 .05000305 .029006958V.70399478C.05000305 .71200057 .05300395 .71900436 .059005739 .7250061 .06433614 .7303365 .070999149 .7330017 .07899475 .7330017H.15600586C.16867066 .7330017 .17733765 .72733566 .18200684 .7160034L.38200379 .28799439C.3839976 .28266398 .3883311 .28066508 .39500428 .28199769 .4003347 .2833303 .40299989 .28699748 .40299989 .29299928V.70399478C.40299989 .71200057 .40600077 .71900436 .41200257 .7250061 .41800437 .7303365 .42500306 .7330017 .43299867 .7330017H.4869995Z"/>
</defs>
<g>
<g clip-path="url(#clip_3)">
<g>
<g clip-path="url(#clip_4)">
<use data-text="Z" xlink:href="#font_5_61" transform="matrix(518.3009,0,0,-518.3009,-12.959442,671.9824)" fill="#ff3131"/>
<use data-text="I" xlink:href="#font_5_44" transform="matrix(518.3009,0,0,-518.3009,214.04888,671.9824)" fill="#ff3131"/>
<use data-text="B" xlink:href="#font_5_37" transform="matrix(518.3009,0,0,-518.3009,298.52647,671.9824)" fill="#ff3131"/>
<use data-text="E" xlink:href="#font_5_40" transform="matrix(518.3009,0,0,-518.3009,562.3336,671.9824)" fill="#ff3131"/>
<use data-text="L" xlink:href="#font_5_47" transform="matrix(518.3009,0,0,-518.3009,774.8297,671.9824)" fill="#ff3131"/>
<use data-text="L" xlink:href="#font_5_47" transform="matrix(518.3009,0,0,-518.3009,973.8502,671.9824)" fill="#ff3131"/>
<use data-text="O" xlink:href="#font_5_50" transform="matrix(518.3009,0,0,-518.3009,1172.8707,671.9824)" fill="#ff3131"/>
<use data-text="A" xlink:href="#font_5_36" transform="matrix(518.3009,0,0,-518.3009,97.71892,1162.3253)" fill="#ffffff"/>
<use data-text="R" xlink:href="#font_5_53" transform="matrix(518.3009,0,0,-518.3009,379.66627,1162.3253)" fill="#ffffff"/>
<use data-text="E" xlink:href="#font_5_40" transform="matrix(518.3009,0,0,-518.3009,614.44888,1162.3253)" fill="#ffffff"/>
<use data-text="N" xlink:href="#font_5_49" transform="matrix(518.3009,0,0,-518.3009,826.94509,1162.3253)" fill="#ffffff"/>
<use data-text="A" xlink:href="#font_5_36" transform="matrix(518.3009,0,0,-518.3009,1094.3801,1162.3253)" fill="#ffffff"/>
</g>
</g>
</g>
</g>
</svg>
